<svg xmlns="http://www.w3.org/2000/svg" version="1.1" xmlns:xlink="http://www.w3.org/1999/xlink" xmlns:svgjs="http://svgjs.dev/svgjs" width="1440" height="360" preserveAspectRatio="none" viewBox="0 0 1440 360"><g mask="url(&quot;#SvgjsMask1004&quot;)" fill="none"><path d="M145.45 387.17C266.63 381.49 359.14 173.9 580.96 173.12 802.77 172.34 798.71 218.12 1016.46 218.12 1234.22 218.12 1342.51 173.18 1451.97 173.12" stroke="rgba(51,121,194,0.58)" stroke-width="2"></path><path d="M633.15 406.49C753.56 396.53 837.83 152.63 1044.34 152.54 1250.85 152.45 1343.73 325.27 1455.53 328.94" stroke="rgba(51,121,194,0.58)" stroke-width="2"></path><path d="M586.01 410.14C698.33 382.71 661.89 80.55 909.4 79.55 1156.91 78.55 1391.09 212.06 1556.18 212.75" stroke="rgba(51,121,194,0.58)" stroke-width="2"></path><path d="M488.08 372.78C597.39 358.1 561.05 110.09 838.87 105.25 1116.69 100.41 1363.62 15.43 1540.45 15.25" stroke="rgba(51,121,194,0.58)" stroke-width="2"></path><path d="M561 398.87C662.62 390.08 634.34 185.58 906.31 181.54 1178.28 177.5 1421.9 66.73 1596.94 66.34" stroke="rgba(51,121,194,0.58)" stroke-width="2"></path></g><defs><mask id="SvgjsMask1004"><rect width="1440" height="360" fill="#ffffff"></rect></mask></defs></svg>