<svg id="visual" viewBox="0 0 450 900" width="450" height="900" xmlns="http://www.w3.org/2000/svg" xmlns:xlink="http://www.w3.org/1999/xlink" version="1.1"><path d="M0 417L64 417L64 410L129 410L129 419L193 419L193 409L257 409L257 480L321 480L321 355L386 355L386 493L450 493L450 383L450 0L450 0L386 0L386 0L321 0L321 0L257 0L257 0L193 0L193 0L129 0L129 0L64 0L64 0L0 0Z" fill="#dddddd"></path><path d="M0 271L64 271L64 344L129 344L129 225L193 225L193 214L257 214L257 374L321 374L321 309L386 309L386 255L450 255L450 258L450 0L450 0L386 0L386 0L321 0L321 0L257 0L257 0L193 0L193 0L129 0L129 0L64 0L64 0L0 0Z" fill="#cdcdcd"></path><path d="M0 145L64 145L64 142L129 142L129 220L193 220L193 152L257 152L257 101L321 101L321 140L386 140L386 185L450 185L450 148L450 0L450 0L386 0L386 0L321 0L321 0L257 0L257 0L193 0L193 0L129 0L129 0L64 0L64 0L0 0Z" fill="#bfbfbf"></path></svg>