<svg id="visual" viewBox="0 0 900 600" width="900" height="600" xmlns="http://www.w3.org/2000/svg" xmlns:xlink="http://www.w3.org/1999/xlink" version="1.1"><path d="M0 309L129 309L129 292L257 292L257 326L386 326L386 235L514 235L514 338L643 338L643 317L771 317L771 322L900 322L900 229L900 0L900 0L771 0L771 0L643 0L643 0L514 0L514 0L386 0L386 0L257 0L257 0L129 0L129 0L0 0Z" fill="#dddddd"></path><path d="M0 194L129 194L129 193L257 193L257 137L386 137L386 162L514 162L514 240L643 240L643 136L771 136L771 153L900 153L900 179L900 0L900 0L771 0L771 0L643 0L643 0L514 0L514 0L386 0L386 0L257 0L257 0L129 0L129 0L0 0Z" fill="#cdcdcd"></path><path d="M0 54L129 54L129 60L257 60L257 132L386 132L386 138L514 138L514 76L643 76L643 115L771 115L771 99L900 99L900 54L900 0L900 0L771 0L771 0L643 0L643 0L514 0L514 0L386 0L386 0L257 0L257 0L129 0L129 0L0 0Z" fill="#bfbfbf"></path></svg>