<svg xmlns="http://www.w3.org/2000/svg" version="1.1" xmlns:xlink="http://www.w3.org/1999/xlink" xmlns:svgjs="http://svgjs.dev/svgjs" width="1440" height="560" preserveAspectRatio="none" viewBox="0 0 1440 560"><g mask="url(&quot;#SvgjsMask1002&quot;)" fill="none"><path d="M-54.53 410.02L-54.53 410.02" stroke="#132e65" stroke-width="1.5"></path><path d="M-54.53 410.02L61.66 389.95" stroke="#132e65" stroke-width="1.5"></path><path d="M-54.53 410.02L-102.33 521.84" stroke="#132e65" stroke-width="1.5"></path><path d="M-54.53 410.02L45.38 553.69" stroke="#132e65" stroke-width="1.5"></path><path d="M-54.53 410.02L49.38 679.63" stroke="#132e65" stroke-width="1.5"></path><path d="M-54.53 410.02L219.83 645.18" stroke="#132e65" stroke-width="1.5"></path><path d="M-102.33 521.84L-102.33 521.84" stroke="#132e65" stroke-width="1.5"></path><path d="M61.66 389.95L61.66 389.95" stroke="#132e65" stroke-width="1.5"></path><path d="M61.66 389.95L45.38 553.69" stroke="#132e65" stroke-width="1.5"></path><path d="M61.66 389.95L-102.33 521.84" stroke="#132e65" stroke-width="1.5"></path><path d="M61.66 389.95L345.59 370.48" stroke="#132e65" stroke-width="1.5"></path><path d="M61.66 389.95L49.38 679.63" stroke="#132e65" stroke-width="1.5"></path><path d="M45.38 553.69L45.38 553.69" stroke="#132e65" stroke-width="1.5"></path><path d="M45.38 553.69L49.38 679.63" stroke="#132e65" stroke-width="1.5"></path><path d="M45.38 553.69L-102.33 521.84" stroke="#132e65" stroke-width="1.5"></path><path d="M49.38 679.63L49.38 679.63" stroke="#132e65" stroke-width="1.5"></path><path d="M219.83 645.18L219.83 645.18" stroke="#132e65" stroke-width="1.5"></path><path d="M219.83 645.18L358.05 668.08" stroke="#132e65" stroke-width="1.5"></path><path d="M219.83 645.18L49.38 679.63" stroke="#132e65" stroke-width="1.5"></path><path d="M219.83 645.18L45.38 553.69" stroke="#132e65" stroke-width="1.5"></path><path d="M219.83 645.18L409.7 527.06" stroke="#132e65" stroke-width="1.5"></path><path d="M219.83 645.18L517.36 639.98" stroke="#132e65" stroke-width="1.5"></path><path d="M219.83 645.18L61.66 389.95" stroke="#132e65" stroke-width="1.5"></path><path d="M345.59 370.48L345.59 370.48" stroke="#132e65" stroke-width="1.5"></path><path d="M345.59 370.48L409.7 527.06" stroke="#132e65" stroke-width="1.5"></path><path d="M345.59 370.48L534.88 351.24" stroke="#132e65" stroke-width="1.5"></path><path d="M345.59 370.48L358.05 668.08" stroke="#132e65" stroke-width="1.5"></path><path d="M345.59 370.48L219.83 645.18" stroke="#132e65" stroke-width="1.5"></path><path d="M409.7 527.06L409.7 527.06" stroke="#132e65" stroke-width="1.5"></path><path d="M409.7 527.06L358.05 668.08" stroke="#132e65" stroke-width="1.5"></path><path d="M409.7 527.06L517.36 639.98" stroke="#132e65" stroke-width="1.5"></path><path d="M409.7 527.06L534.88 351.24" stroke="#132e65" stroke-width="1.5"></path><path d="M358.05 668.08L358.05 668.08" stroke="#132e65" stroke-width="1.5"></path><path d="M358.05 668.08L517.36 639.98" stroke="#132e65" stroke-width="1.5"></path><path d="M358.05 668.08L49.38 679.63" stroke="#132e65" stroke-width="1.5"></path><path d="M358.05 668.08L642.8 500.6" stroke="#132e65" stroke-width="1.5"></path><path d="M534.88 351.24L534.88 351.24" stroke="#132e65" stroke-width="1.5"></path><path d="M534.88 351.24L669.73 338.62" stroke="#132e65" stroke-width="1.5"></path><path d="M534.88 351.24L642.8 500.6" stroke="#132e65" stroke-width="1.5"></path><path d="M534.88 351.24L517.36 639.98" stroke="#132e65" stroke-width="1.5"></path><path d="M517.36 639.98L517.36 639.98" stroke="#132e65" stroke-width="1.5"></path><path d="M517.36 639.98L642.8 500.6" stroke="#132e65" stroke-width="1.5"></path><path d="M669.73 338.62L669.73 338.62" stroke="#132e65" stroke-width="1.5"></path><path d="M669.73 338.62L642.8 500.6" stroke="#132e65" stroke-width="1.5"></path><path d="M669.73 338.62L843.58 383.86" stroke="#132e65" stroke-width="1.5"></path><path d="M669.73 338.62L798.27 500.34" stroke="#132e65" stroke-width="1.5"></path><path d="M669.73 338.62L827.53 195.78" stroke="#132e65" stroke-width="1.5"></path><path d="M642.8 500.6L642.8 500.6" stroke="#132e65" stroke-width="1.5"></path><path d="M642.8 500.6L798.27 500.34" stroke="#132e65" stroke-width="1.5"></path><path d="M705.44 662.88L705.44 662.88" stroke="#132e65" stroke-width="1.5"></path><path d="M705.44 662.88L858.74 682.4" stroke="#132e65" stroke-width="1.5"></path><path d="M705.44 662.88L642.8 500.6" stroke="#132e65" stroke-width="1.5"></path><path d="M705.44 662.88L798.27 500.34" stroke="#132e65" stroke-width="1.5"></path><path d="M827.53 195.78L827.53 195.78" stroke="#132e65" stroke-width="1.5"></path><path d="M827.53 195.78L986.4 214.69" stroke="#132e65" stroke-width="1.5"></path><path d="M827.53 195.78L843.58 383.86" stroke="#132e65" stroke-width="1.5"></path><path d="M843.58 383.86L843.58 383.86" stroke="#132e65" stroke-width="1.5"></path><path d="M843.58 383.86L798.27 500.34" stroke="#132e65" stroke-width="1.5"></path><path d="M843.58 383.86L1010.42 363.3" stroke="#132e65" stroke-width="1.5"></path><path d="M798.27 500.34L798.27 500.34" stroke="#132e65" stroke-width="1.5"></path><path d="M858.74 682.4L858.74 682.4" stroke="#132e65" stroke-width="1.5"></path><path d="M858.74 682.4L987.89 702.73" stroke="#132e65" stroke-width="1.5"></path><path d="M858.74 682.4L798.27 500.34" stroke="#132e65" stroke-width="1.5"></path><path d="M963.46 -91.21L963.46 -91.21" stroke="#132e65" stroke-width="1.5"></path><path d="M963.46 -91.21L1090.05 -103.61" stroke="#132e65" stroke-width="1.5"></path><path d="M963.46 -91.21L1092.33 85.24" stroke="#132e65" stroke-width="1.5"></path><path d="M986.4 214.69L986.4 214.69" stroke="#132e65" stroke-width="1.5"></path><path d="M986.4 214.69L1105.48 241.77" stroke="#132e65" stroke-width="1.5"></path><path d="M986.4 214.69L1010.42 363.3" stroke="#132e65" stroke-width="1.5"></path><path d="M986.4 214.69L1092.33 85.24" stroke="#132e65" stroke-width="1.5"></path><path d="M1010.42 363.3L1010.42 363.3" stroke="#132e65" stroke-width="1.5"></path><path d="M1010.42 363.3L1107.65 357.27" stroke="#132e65" stroke-width="1.5"></path><path d="M1010.42 363.3L1105.48 241.77" stroke="#132e65" stroke-width="1.5"></path><path d="M1010.42 363.3L1010.41 538.72" stroke="#132e65" stroke-width="1.5"></path><path d="M1010.42 363.3L1111.4 541.5" stroke="#132e65" stroke-width="1.5"></path><path d="M1010.41 538.72L1010.41 538.72" stroke="#132e65" stroke-width="1.5"></path><path d="M1010.41 538.72L1111.4 541.5" stroke="#132e65" stroke-width="1.5"></path><path d="M1010.41 538.72L1107.37 667.59" stroke="#132e65" stroke-width="1.5"></path><path d="M1010.41 538.72L987.89 702.73" stroke="#132e65" stroke-width="1.5"></path><path d="M1010.41 538.72L1107.65 357.27" stroke="#132e65" stroke-width="1.5"></path><path d="M1010.41 538.72L858.74 682.4" stroke="#132e65" stroke-width="1.5"></path><path d="M987.89 702.73L987.89 702.73" stroke="#132e65" stroke-width="1.5"></path><path d="M987.89 702.73L1107.37 667.59" stroke="#132e65" stroke-width="1.5"></path><path d="M1090.05 -103.61L1090.05 -103.61" stroke="#132e65" stroke-width="1.5"></path><path d="M1090.05 -103.61L1092.33 85.24" stroke="#132e65" stroke-width="1.5"></path><path d="M1090.05 -103.61L1297.57 -68.62" stroke="#132e65" stroke-width="1.5"></path><path d="M1090.05 -103.61L1288.43 87.16" stroke="#132e65" stroke-width="1.5"></path><path d="M1090.05 -103.61L986.4 214.69" stroke="#132e65" stroke-width="1.5"></path><path d="M1090.05 -103.61L1425.68 -84.25" stroke="#132e65" stroke-width="1.5"></path><path d="M1092.33 85.24L1092.33 85.24" stroke="#132e65" stroke-width="1.5"></path><path d="M1092.33 85.24L1105.48 241.77" stroke="#132e65" stroke-width="1.5"></path><path d="M1092.33 85.24L1288.43 87.16" stroke="#132e65" stroke-width="1.5"></path><path d="M1105.48 241.77L1105.48 241.77" stroke="#132e65" stroke-width="1.5"></path><path d="M1105.48 241.77L1107.65 357.27" stroke="#132e65" stroke-width="1.5"></path><path d="M1105.48 241.77L1288.83 200.23" stroke="#132e65" stroke-width="1.5"></path><path d="M1105.48 241.77L1248.74 400.21" stroke="#132e65" stroke-width="1.5"></path><path d="M1107.65 357.27L1107.65 357.27" stroke="#132e65" stroke-width="1.5"></path><path d="M1107.65 357.27L1248.74 400.21" stroke="#132e65" stroke-width="1.5"></path><path d="M1107.65 357.27L1111.4 541.5" stroke="#132e65" stroke-width="1.5"></path><path d="M1107.65 357.27L986.4 214.69" stroke="#132e65" stroke-width="1.5"></path><path d="M1111.4 541.5L1111.4 541.5" stroke="#132e65" stroke-width="1.5"></path><path d="M1111.4 541.5L1107.37 667.59" stroke="#132e65" stroke-width="1.5"></path><path d="M1107.37 667.59L1107.37 667.59" stroke="#132e65" stroke-width="1.5"></path><path d="M1107.37 667.59L1245.52 661.68" stroke="#132e65" stroke-width="1.5"></path><path d="M1107.37 667.59L1307.67 531.08" stroke="#132e65" stroke-width="1.5"></path><path d="M1297.57 -68.62L1297.57 -68.62" stroke="#132e65" stroke-width="1.5"></path><path d="M1297.57 -68.62L1425.68 -84.25" stroke="#132e65" stroke-width="1.5"></path><path d="M1297.57 -68.62L1288.43 87.16" stroke="#132e65" stroke-width="1.5"></path><path d="M1297.57 -68.62L1445.39 38.54" stroke="#132e65" stroke-width="1.5"></path><path d="M1297.57 -68.62L1092.33 85.24" stroke="#132e65" stroke-width="1.5"></path><path d="M1288.43 87.16L1288.43 87.16" stroke="#132e65" stroke-width="1.5"></path><path d="M1288.43 87.16L1288.83 200.23" stroke="#132e65" stroke-width="1.5"></path><path d="M1288.43 87.16L1445.39 38.54" stroke="#132e65" stroke-width="1.5"></path><path d="M1288.43 87.16L1421.04 248.17" stroke="#132e65" stroke-width="1.5"></path><path d="M1288.83 200.23L1288.83 200.23" stroke="#132e65" stroke-width="1.5"></path><path d="M1288.83 200.23L1421.04 248.17" stroke="#132e65" stroke-width="1.5"></path><path d="M1288.83 200.23L1248.74 400.21" stroke="#132e65" stroke-width="1.5"></path><path d="M1288.83 200.23L1424.48 363.32" stroke="#132e65" stroke-width="1.5"></path><path d="M1248.74 400.21L1248.74 400.21" stroke="#132e65" stroke-width="1.5"></path><path d="M1248.74 400.21L1307.67 531.08" stroke="#132e65" stroke-width="1.5"></path><path d="M1248.74 400.21L1424.48 363.32" stroke="#132e65" stroke-width="1.5"></path><path d="M1248.74 400.21L1111.4 541.5" stroke="#132e65" stroke-width="1.5"></path><path d="M1307.67 531.08L1307.67 531.08" stroke="#132e65" stroke-width="1.5"></path><path d="M1307.67 531.08L1415.63 537.78" stroke="#132e65" stroke-width="1.5"></path><path d="M1307.67 531.08L1245.52 661.68" stroke="#132e65" stroke-width="1.5"></path><path d="M1307.67 531.08L1111.4 541.5" stroke="#132e65" stroke-width="1.5"></path><path d="M1307.67 531.08L1424.48 363.32" stroke="#132e65" stroke-width="1.5"></path><path d="M1307.67 531.08L1457.58 709.54" stroke="#132e65" stroke-width="1.5"></path><path d="M1245.52 661.68L1245.52 661.68" stroke="#132e65" stroke-width="1.5"></path><path d="M1245.52 661.68L1111.4 541.5" stroke="#132e65" stroke-width="1.5"></path><path d="M1425.68 -84.25L1425.68 -84.25" stroke="#132e65" stroke-width="1.5"></path><path d="M1425.68 -84.25L1445.39 38.54" stroke="#132e65" stroke-width="1.5"></path><path d="M1425.68 -84.25L1587.49 -54.85" stroke="#132e65" stroke-width="1.5"></path><path d="M1425.68 -84.25L1592.31 54.51" stroke="#132e65" stroke-width="1.5"></path><path d="M1425.68 -84.25L1288.43 87.16" stroke="#132e65" stroke-width="1.5"></path><path d="M1445.39 38.54L1445.39 38.54" stroke="#132e65" stroke-width="1.5"></path><path d="M1445.39 38.54L1592.31 54.51" stroke="#132e65" stroke-width="1.5"></path><path d="M1445.39 38.54L1587.49 -54.85" stroke="#132e65" stroke-width="1.5"></path><path d="M1421.04 248.17L1421.04 248.17" stroke="#132e65" stroke-width="1.5"></path><path d="M1421.04 248.17L1424.48 363.32" stroke="#132e65" stroke-width="1.5"></path><path d="M1421.04 248.17L1589.96 211.36" stroke="#132e65" stroke-width="1.5"></path><path d="M1421.04 248.17L1547.35 384.3" stroke="#132e65" stroke-width="1.5"></path><path d="M1424.48 363.32L1424.48 363.32" stroke="#132e65" stroke-width="1.5"></path><path d="M1424.48 363.32L1547.35 384.3" stroke="#132e65" stroke-width="1.5"></path><path d="M1424.48 363.32L1415.63 537.78" stroke="#132e65" stroke-width="1.5"></path><path d="M1424.48 363.32L1542.74 520.24" stroke="#132e65" stroke-width="1.5"></path><path d="M1415.63 537.78L1415.63 537.78" stroke="#132e65" stroke-width="1.5"></path><path d="M1415.63 537.78L1542.74 520.24" stroke="#132e65" stroke-width="1.5"></path><path d="M1415.63 537.78L1457.58 709.54" stroke="#132e65" stroke-width="1.5"></path><path d="M1415.63 537.78L1547.35 384.3" stroke="#132e65" stroke-width="1.5"></path><path d="M1457.58 709.54L1457.58 709.54" stroke="#132e65" stroke-width="1.5"></path><path d="M1457.58 709.54L1579.12 666.29" stroke="#132e65" stroke-width="1.5"></path><path d="M1457.58 709.54L1542.74 520.24" stroke="#132e65" stroke-width="1.5"></path><path d="M1457.58 709.54L1245.52 661.68" stroke="#132e65" stroke-width="1.5"></path><path d="M1457.58 709.54L1547.35 384.3" stroke="#132e65" stroke-width="1.5"></path><path d="M1587.49 -54.85L1587.49 -54.85" stroke="#132e65" stroke-width="1.5"></path><path d="M1587.49 -54.85L1592.31 54.51" stroke="#132e65" stroke-width="1.5"></path><path d="M1587.49 -54.85L1589.96 211.36" stroke="#132e65" stroke-width="1.5"></path><path d="M1587.49 -54.85L1297.57 -68.62" stroke="#132e65" stroke-width="1.5"></path><path d="M1592.31 54.51L1592.31 54.51" stroke="#132e65" stroke-width="1.5"></path><path d="M1592.31 54.51L1589.96 211.36" stroke="#132e65" stroke-width="1.5"></path><path d="M1592.31 54.51L1421.04 248.17" stroke="#132e65" stroke-width="1.5"></path><path d="M1592.31 54.51L1288.43 87.16" stroke="#132e65" stroke-width="1.5"></path><path d="M1589.96 211.36L1589.96 211.36" stroke="#132e65" stroke-width="1.5"></path><path d="M1547.35 384.3L1547.35 384.3" stroke="#132e65" stroke-width="1.5"></path><path d="M1547.35 384.3L1542.74 520.24" stroke="#132e65" stroke-width="1.5"></path><path d="M1547.35 384.3L1589.96 211.36" stroke="#132e65" stroke-width="1.5"></path><path d="M1547.35 384.3L1307.67 531.08" stroke="#132e65" stroke-width="1.5"></path><path d="M1542.74 520.24L1542.74 520.24" stroke="#132e65" stroke-width="1.5"></path><path d="M1542.74 520.24L1579.12 666.29" stroke="#132e65" stroke-width="1.5"></path><path d="M1579.12 666.29L1579.12 666.29" stroke="#132e65" stroke-width="1.5"></path><circle r="5" cx="-54.53" cy="410.02" fill="#132e65"></circle><circle r="5" cx="-102.33" cy="521.84" fill="#132e65"></circle><circle r="5" cx="61.66" cy="389.95" fill="#132e65"></circle><circle r="5" cx="45.38" cy="553.69" fill="#132e65"></circle><circle r="5" cx="49.38" cy="679.63" fill="#132e65"></circle><circle r="5" cx="219.83" cy="645.18" fill="#132e65"></circle><circle r="5" cx="345.59" cy="370.48" fill="#132e65"></circle><circle r="5" cx="409.7" cy="527.06" fill="#132e65"></circle><circle r="5" cx="358.05" cy="668.08" fill="#132e65"></circle><circle r="5" cx="534.88" cy="351.24" fill="#132e65"></circle><circle r="5" cx="517.36" cy="639.98" fill="#132e65"></circle><circle r="5" cx="669.73" cy="338.62" fill="#132e65"></circle><circle r="5" cx="642.8" cy="500.6" fill="#132e65"></circle><circle r="5" cx="705.44" cy="662.88" fill="#132e65"></circle><circle r="5" cx="827.53" cy="195.78" fill="#132e65"></circle><circle r="5" cx="843.58" cy="383.86" fill="#132e65"></circle><circle r="5" cx="798.27" cy="500.34" fill="#132e65"></circle><circle r="5" cx="858.74" cy="682.4" fill="#132e65"></circle><circle r="5" cx="963.46" cy="-91.21" fill="#132e65"></circle><circle r="5" cx="986.4" cy="214.69" fill="#132e65"></circle><circle r="5" cx="1010.42" cy="363.3" fill="#132e65"></circle><circle r="5" cx="1010.41" cy="538.72" fill="#132e65"></circle><circle r="5" cx="987.89" cy="702.73" fill="#132e65"></circle><circle r="5" cx="1090.05" cy="-103.61" fill="#132e65"></circle><circle r="5" cx="1092.33" cy="85.24" fill="#132e65"></circle><circle r="5" cx="1105.48" cy="241.77" fill="#132e65"></circle><circle r="5" cx="1107.65" cy="357.27" fill="#132e65"></circle><circle r="5" cx="1111.4" cy="541.5" fill="#132e65"></circle><circle r="5" cx="1107.37" cy="667.59" fill="#132e65"></circle><circle r="5" cx="1297.57" cy="-68.62" fill="#132e65"></circle><circle r="5" cx="1288.43" cy="87.16" fill="#132e65"></circle><circle r="5" cx="1288.83" cy="200.23" fill="#132e65"></circle><circle r="5" cx="1248.74" cy="400.21" fill="#132e65"></circle><circle r="5" cx="1307.67" cy="531.08" fill="#132e65"></circle><circle r="5" cx="1245.52" cy="661.68" fill="#132e65"></circle><circle r="5" cx="1425.68" cy="-84.25" fill="#132e65"></circle><circle r="5" cx="1445.39" cy="38.54" fill="#132e65"></circle><circle r="5" cx="1421.04" cy="248.17" fill="#132e65"></circle><circle r="5" cx="1424.48" cy="363.32" fill="#132e65"></circle><circle r="5" cx="1415.63" cy="537.78" fill="#132e65"></circle><circle r="5" cx="1457.58" cy="709.54" fill="#132e65"></circle><circle r="5" cx="1587.49" cy="-54.85" fill="#132e65"></circle><circle r="5" cx="1592.31" cy="54.51" fill="#132e65"></circle><circle r="5" cx="1589.96" cy="211.36" fill="#132e65"></circle><circle r="5" cx="1547.35" cy="384.3" fill="#132e65"></circle><circle r="5" cx="1542.74" cy="520.24" fill="#132e65"></circle><circle r="5" cx="1579.12" cy="666.29" fill="#132e65"></circle><path d="M398.2 534.97L398.2 534.97" stroke="hsl(228.5, 77.2%, 51.5%)" stroke-width="1.5"></path><path d="M398.2 534.97L354.42 663.92" stroke="hsl(228.5, 77.2%, 51.5%)" stroke-width="1.5"></path><path d="M398.2 534.97L259.02 653.34" stroke="hsl(228.5, 77.2%, 51.5%)" stroke-width="1.5"></path><path d="M398.2 534.97L492.08 704.27" stroke="hsl(228.5, 77.2%, 51.5%)" stroke-width="1.5"></path><path d="M398.2 534.97L647.19 707.15" stroke="hsl(228.5, 77.2%, 51.5%)" stroke-width="1.5"></path><path d="M398.2 534.97L711.11 505.16" stroke="hsl(228.5, 77.2%, 51.5%)" stroke-width="1.5"></path><path d="M398.2 534.97L684.6 384" stroke="hsl(228.5, 77.2%, 51.5%)" stroke-width="1.5"></path><path d="M711.11 505.16L711.11 505.16" stroke="hsl(228.5, 77.2%, 51.5%)" stroke-width="1.5"></path><path d="M711.11 505.16L807.62 525.55" stroke="hsl(228.5, 77.2%, 51.5%)" stroke-width="1.5"></path><path d="M647.19 707.15L647.19 707.15" stroke="hsl(228.5, 77.2%, 51.5%)" stroke-width="1.5"></path><path d="M647.19 707.15L492.08 704.27" stroke="hsl(228.5, 77.2%, 51.5%)" stroke-width="1.5"></path><path d="M647.19 707.15L833.15 696" stroke="hsl(228.5, 77.2%, 51.5%)" stroke-width="1.5"></path><path d="M647.19 707.15L711.11 505.16" stroke="hsl(228.5, 77.2%, 51.5%)" stroke-width="1.5"></path><path d="M647.19 707.15L807.62 525.55" stroke="hsl(228.5, 77.2%, 51.5%)" stroke-width="1.5"></path><path d="M965.07 680.66L965.07 680.66" stroke="hsl(228.5, 77.2%, 51.5%)" stroke-width="1.5"></path><path d="M965.07 680.66L833.15 696" stroke="hsl(228.5, 77.2%, 51.5%)" stroke-width="1.5"></path><path d="M965.07 680.66L986.17 517.28" stroke="hsl(228.5, 77.2%, 51.5%)" stroke-width="1.5"></path><path d="M965.07 680.66L1143.3 702.92" stroke="hsl(228.5, 77.2%, 51.5%)" stroke-width="1.5"></path><path d="M965.07 680.66L1116.69 525.48" stroke="hsl(228.5, 77.2%, 51.5%)" stroke-width="1.5"></path><path d="M965.07 680.66L807.62 525.55" stroke="hsl(228.5, 77.2%, 51.5%)" stroke-width="1.5"></path><path d="M1282.56 -65.82L1282.56 -65.82" stroke="hsl(228.5, 77.2%, 51.5%)" stroke-width="1.5"></path><path d="M1282.56 -65.82L1291.53 43.68" stroke="hsl(228.5, 77.2%, 51.5%)" stroke-width="1.5"></path><path d="M1282.56 -65.82L1421.05 -83.46" stroke="hsl(228.5, 77.2%, 51.5%)" stroke-width="1.5"></path><path d="M1246.92 220.03L1246.92 220.03" stroke="hsl(228.5, 77.2%, 51.5%)" stroke-width="1.5"></path><path d="M1246.92 220.03L1089.68 220.96" stroke="hsl(228.5, 77.2%, 51.5%)" stroke-width="1.5"></path><path d="M1246.92 220.03L1413.23 200.36" stroke="hsl(228.5, 77.2%, 51.5%)" stroke-width="1.5"></path><path d="M1246.92 220.03L1291.53 43.68" stroke="hsl(228.5, 77.2%, 51.5%)" stroke-width="1.5"></path><path d="M1582.32 248.39L1582.32 248.39" stroke="hsl(228.5, 77.2%, 51.5%)" stroke-width="1.5"></path><path d="M1582.32 248.39L1573.34 395.13" stroke="hsl(228.5, 77.2%, 51.5%)" stroke-width="1.5"></path><path d="M1582.32 248.39L1413.23 200.36" stroke="hsl(228.5, 77.2%, 51.5%)" stroke-width="1.5"></path><path d="M1582.32 248.39L1411.48 395.26" stroke="hsl(228.5, 77.2%, 51.5%)" stroke-width="1.5"></path><path d="M1582.32 248.39L1537.73 493.25" stroke="hsl(228.5, 77.2%, 51.5%)" stroke-width="1.5"></path><path d="M1582.32 248.39L1411.23 55.81" stroke="hsl(228.5, 77.2%, 51.5%)" stroke-width="1.5"></path><path d="M1582.32 248.39L1569.75 -64.29" stroke="hsl(228.5, 77.2%, 51.5%)" stroke-width="1.5"></path><path d="M1573.34 395.13L1573.34 395.13" stroke="hsl(228.5, 77.2%, 51.5%)" stroke-width="1.5"></path><path d="M1573.34 395.13L1537.73 493.25" stroke="hsl(228.5, 77.2%, 51.5%)" stroke-width="1.5"></path><path d="M1573.34 395.13L1411.48 395.26" stroke="hsl(228.5, 77.2%, 51.5%)" stroke-width="1.5"></path><path d="M-60.52 505.04L-60.52 505.04" stroke="hsl(228.5, 77.2%, 51.5%)" stroke-width="1.5"></path><path d="M-60.52 505.04L73.5 546.05" stroke="hsl(228.5, 77.2%, 51.5%)" stroke-width="1.5"></path><path d="M-60.52 505.04L-110.46 648.77" stroke="hsl(228.5, 77.2%, 51.5%)" stroke-width="1.5"></path><path d="M-60.52 505.04L68.11 656.96" stroke="hsl(228.5, 77.2%, 51.5%)" stroke-width="1.5"></path><path d="M-60.52 505.04L259.02 653.34" stroke="hsl(228.5, 77.2%, 51.5%)" stroke-width="1.5"></path><path d="M-110.46 648.77L-110.46 648.77" stroke="hsl(228.5, 77.2%, 51.5%)" stroke-width="1.5"></path><path d="M-110.46 648.77L68.11 656.96" stroke="hsl(228.5, 77.2%, 51.5%)" stroke-width="1.5"></path><path d="M73.5 546.05L73.5 546.05" stroke="hsl(228.5, 77.2%, 51.5%)" stroke-width="1.5"></path><path d="M73.5 546.05L68.11 656.96" stroke="hsl(228.5, 77.2%, 51.5%)" stroke-width="1.5"></path><path d="M73.5 546.05L-110.46 648.77" stroke="hsl(228.5, 77.2%, 51.5%)" stroke-width="1.5"></path><path d="M73.5 546.05L259.02 653.34" stroke="hsl(228.5, 77.2%, 51.5%)" stroke-width="1.5"></path><path d="M73.5 546.05L354.42 663.92" stroke="hsl(228.5, 77.2%, 51.5%)" stroke-width="1.5"></path><path d="M68.11 656.96L68.11 656.96" stroke="hsl(228.5, 77.2%, 51.5%)" stroke-width="1.5"></path><path d="M68.11 656.96L259.02 653.34" stroke="hsl(228.5, 77.2%, 51.5%)" stroke-width="1.5"></path><path d="M259.02 653.34L259.02 653.34" stroke="hsl(228.5, 77.2%, 51.5%)" stroke-width="1.5"></path><path d="M259.02 653.34L354.42 663.92" stroke="hsl(228.5, 77.2%, 51.5%)" stroke-width="1.5"></path><path d="M354.42 663.92L354.42 663.92" stroke="hsl(228.5, 77.2%, 51.5%)" stroke-width="1.5"></path><path d="M354.42 663.92L492.08 704.27" stroke="hsl(228.5, 77.2%, 51.5%)" stroke-width="1.5"></path><path d="M492.08 704.27L492.08 704.27" stroke="hsl(228.5, 77.2%, 51.5%)" stroke-width="1.5"></path><path d="M684.6 384L684.6 384" stroke="hsl(228.5, 77.2%, 51.5%)" stroke-width="1.5"></path><path d="M684.6 384L800.45 379.26" stroke="hsl(228.5, 77.2%, 51.5%)" stroke-width="1.5"></path><path d="M684.6 384L711.11 505.16" stroke="hsl(228.5, 77.2%, 51.5%)" stroke-width="1.5"></path><path d="M684.6 384L807.62 525.55" stroke="hsl(228.5, 77.2%, 51.5%)" stroke-width="1.5"></path><path d="M684.6 384L970.36 393.82" stroke="hsl(228.5, 77.2%, 51.5%)" stroke-width="1.5"></path><path d="M684.6 384L647.19 707.15" stroke="hsl(228.5, 77.2%, 51.5%)" stroke-width="1.5"></path><path d="M800.45 379.26L800.45 379.26" stroke="hsl(228.5, 77.2%, 51.5%)" stroke-width="1.5"></path><path d="M800.45 379.26L807.62 525.55" stroke="hsl(228.5, 77.2%, 51.5%)" stroke-width="1.5"></path><path d="M800.45 379.26L711.11 505.16" stroke="hsl(228.5, 77.2%, 51.5%)" stroke-width="1.5"></path><path d="M800.45 379.26L970.36 393.82" stroke="hsl(228.5, 77.2%, 51.5%)" stroke-width="1.5"></path><path d="M807.62 525.55L807.62 525.55" stroke="hsl(228.5, 77.2%, 51.5%)" stroke-width="1.5"></path><path d="M807.62 525.55L833.15 696" stroke="hsl(228.5, 77.2%, 51.5%)" stroke-width="1.5"></path><path d="M807.62 525.55L986.17 517.28" stroke="hsl(228.5, 77.2%, 51.5%)" stroke-width="1.5"></path><path d="M833.15 696L833.15 696" stroke="hsl(228.5, 77.2%, 51.5%)" stroke-width="1.5"></path><path d="M833.15 696L711.11 505.16" stroke="hsl(228.5, 77.2%, 51.5%)" stroke-width="1.5"></path><path d="M833.15 696L986.17 517.28" stroke="hsl(228.5, 77.2%, 51.5%)" stroke-width="1.5"></path><path d="M833.15 696L1143.3 702.92" stroke="hsl(228.5, 77.2%, 51.5%)" stroke-width="1.5"></path><path d="M1002.84 237.25L1002.84 237.25" stroke="hsl(228.5, 77.2%, 51.5%)" stroke-width="1.5"></path><path d="M1002.84 237.25L1089.68 220.96" stroke="hsl(228.5, 77.2%, 51.5%)" stroke-width="1.5"></path><path d="M1002.84 237.25L970.36 393.82" stroke="hsl(228.5, 77.2%, 51.5%)" stroke-width="1.5"></path><path d="M1002.84 237.25L1159.08 393.8" stroke="hsl(228.5, 77.2%, 51.5%)" stroke-width="1.5"></path><path d="M1002.84 237.25L1246.92 220.03" stroke="hsl(228.5, 77.2%, 51.5%)" stroke-width="1.5"></path><path d="M1002.84 237.25L800.45 379.26" stroke="hsl(228.5, 77.2%, 51.5%)" stroke-width="1.5"></path><path d="M970.36 393.82L970.36 393.82" stroke="hsl(228.5, 77.2%, 51.5%)" stroke-width="1.5"></path><path d="M970.36 393.82L986.17 517.28" stroke="hsl(228.5, 77.2%, 51.5%)" stroke-width="1.5"></path><path d="M986.17 517.28L986.17 517.28" stroke="hsl(228.5, 77.2%, 51.5%)" stroke-width="1.5"></path><path d="M986.17 517.28L1116.69 525.48" stroke="hsl(228.5, 77.2%, 51.5%)" stroke-width="1.5"></path><path d="M986.17 517.28L1159.08 393.8" stroke="hsl(228.5, 77.2%, 51.5%)" stroke-width="1.5"></path><path d="M986.17 517.28L800.45 379.26" stroke="hsl(228.5, 77.2%, 51.5%)" stroke-width="1.5"></path><path d="M1089.68 220.96L1089.68 220.96" stroke="hsl(228.5, 77.2%, 51.5%)" stroke-width="1.5"></path><path d="M1159.08 393.8L1159.08 393.8" stroke="hsl(228.5, 77.2%, 51.5%)" stroke-width="1.5"></path><path d="M1159.08 393.8L1291.65 396.63" stroke="hsl(228.5, 77.2%, 51.5%)" stroke-width="1.5"></path><path d="M1159.08 393.8L1116.69 525.48" stroke="hsl(228.5, 77.2%, 51.5%)" stroke-width="1.5"></path><path d="M1159.08 393.8L1089.68 220.96" stroke="hsl(228.5, 77.2%, 51.5%)" stroke-width="1.5"></path><path d="M1159.08 393.8L970.36 393.82" stroke="hsl(228.5, 77.2%, 51.5%)" stroke-width="1.5"></path><path d="M1159.08 393.8L1276.39 545.44" stroke="hsl(228.5, 77.2%, 51.5%)" stroke-width="1.5"></path><path d="M1159.08 393.8L1246.92 220.03" stroke="hsl(228.5, 77.2%, 51.5%)" stroke-width="1.5"></path><path d="M1116.69 525.48L1116.69 525.48" stroke="hsl(228.5, 77.2%, 51.5%)" stroke-width="1.5"></path><path d="M1116.69 525.48L1276.39 545.44" stroke="hsl(228.5, 77.2%, 51.5%)" stroke-width="1.5"></path><path d="M1116.69 525.48L1143.3 702.92" stroke="hsl(228.5, 77.2%, 51.5%)" stroke-width="1.5"></path><path d="M1116.69 525.48L970.36 393.82" stroke="hsl(228.5, 77.2%, 51.5%)" stroke-width="1.5"></path><path d="M1143.3 702.92L1143.3 702.92" stroke="hsl(228.5, 77.2%, 51.5%)" stroke-width="1.5"></path><path d="M1143.3 702.92L1288.6 709.62" stroke="hsl(228.5, 77.2%, 51.5%)" stroke-width="1.5"></path><path d="M1291.53 43.68L1291.53 43.68" stroke="hsl(228.5, 77.2%, 51.5%)" stroke-width="1.5"></path><path d="M1291.53 43.68L1411.23 55.81" stroke="hsl(228.5, 77.2%, 51.5%)" stroke-width="1.5"></path><path d="M1291.53 43.68L1421.05 -83.46" stroke="hsl(228.5, 77.2%, 51.5%)" stroke-width="1.5"></path><path d="M1291.65 396.63L1291.65 396.63" stroke="hsl(228.5, 77.2%, 51.5%)" stroke-width="1.5"></path><path d="M1291.65 396.63L1411.48 395.26" stroke="hsl(228.5, 77.2%, 51.5%)" stroke-width="1.5"></path><path d="M1291.65 396.63L1276.39 545.44" stroke="hsl(228.5, 77.2%, 51.5%)" stroke-width="1.5"></path><path d="M1291.65 396.63L1246.92 220.03" stroke="hsl(228.5, 77.2%, 51.5%)" stroke-width="1.5"></path><path d="M1291.65 396.63L1412.35 545.89" stroke="hsl(228.5, 77.2%, 51.5%)" stroke-width="1.5"></path><path d="M1291.65 396.63L1116.69 525.48" stroke="hsl(228.5, 77.2%, 51.5%)" stroke-width="1.5"></path><path d="M1276.39 545.44L1276.39 545.44" stroke="hsl(228.5, 77.2%, 51.5%)" stroke-width="1.5"></path><path d="M1276.39 545.44L1412.35 545.89" stroke="hsl(228.5, 77.2%, 51.5%)" stroke-width="1.5"></path><path d="M1288.6 709.62L1288.6 709.62" stroke="hsl(228.5, 77.2%, 51.5%)" stroke-width="1.5"></path><path d="M1288.6 709.62L1276.39 545.44" stroke="hsl(228.5, 77.2%, 51.5%)" stroke-width="1.5"></path><path d="M1288.6 709.62L1412.35 545.89" stroke="hsl(228.5, 77.2%, 51.5%)" stroke-width="1.5"></path><path d="M1288.6 709.62L1116.69 525.48" stroke="hsl(228.5, 77.2%, 51.5%)" stroke-width="1.5"></path><path d="M1288.6 709.62L1291.65 396.63" stroke="hsl(228.5, 77.2%, 51.5%)" stroke-width="1.5"></path><path d="M1421.05 -83.46L1421.05 -83.46" stroke="hsl(228.5, 77.2%, 51.5%)" stroke-width="1.5"></path><path d="M1421.05 -83.46L1411.23 55.81" stroke="hsl(228.5, 77.2%, 51.5%)" stroke-width="1.5"></path><path d="M1421.05 -83.46L1569.75 -64.29" stroke="hsl(228.5, 77.2%, 51.5%)" stroke-width="1.5"></path><path d="M1421.05 -83.46L1413.23 200.36" stroke="hsl(228.5, 77.2%, 51.5%)" stroke-width="1.5"></path><path d="M1411.23 55.81L1411.23 55.81" stroke="hsl(228.5, 77.2%, 51.5%)" stroke-width="1.5"></path><path d="M1411.23 55.81L1413.23 200.36" stroke="hsl(228.5, 77.2%, 51.5%)" stroke-width="1.5"></path><path d="M1411.23 55.81L1282.56 -65.82" stroke="hsl(228.5, 77.2%, 51.5%)" stroke-width="1.5"></path><path d="M1413.23 200.36L1413.23 200.36" stroke="hsl(228.5, 77.2%, 51.5%)" stroke-width="1.5"></path><path d="M1411.48 395.26L1411.48 395.26" stroke="hsl(228.5, 77.2%, 51.5%)" stroke-width="1.5"></path><path d="M1411.48 395.26L1412.35 545.89" stroke="hsl(228.5, 77.2%, 51.5%)" stroke-width="1.5"></path><path d="M1411.48 395.26L1537.73 493.25" stroke="hsl(228.5, 77.2%, 51.5%)" stroke-width="1.5"></path><path d="M1412.35 545.89L1412.35 545.89" stroke="hsl(228.5, 77.2%, 51.5%)" stroke-width="1.5"></path><path d="M1412.35 545.89L1537.73 493.25" stroke="hsl(228.5, 77.2%, 51.5%)" stroke-width="1.5"></path><path d="M1569.75 -64.29L1569.75 -64.29" stroke="hsl(228.5, 77.2%, 51.5%)" stroke-width="1.5"></path><path d="M1569.75 -64.29L1411.23 55.81" stroke="hsl(228.5, 77.2%, 51.5%)" stroke-width="1.5"></path><path d="M1569.75 -64.29L1282.56 -65.82" stroke="hsl(228.5, 77.2%, 51.5%)" stroke-width="1.5"></path><path d="M1569.75 -64.29L1291.53 43.68" stroke="hsl(228.5, 77.2%, 51.5%)" stroke-width="1.5"></path><path d="M1569.75 -64.29L1413.23 200.36" stroke="hsl(228.5, 77.2%, 51.5%)" stroke-width="1.5"></path><path d="M1537.73 493.25L1537.73 493.25" stroke="hsl(228.5, 77.2%, 51.5%)" stroke-width="1.5"></path><path d="M1603.24 701L1603.24 701" stroke="hsl(228.5, 77.2%, 51.5%)" stroke-width="1.5"></path><path d="M1603.24 701L1537.73 493.25" stroke="hsl(228.5, 77.2%, 51.5%)" stroke-width="1.5"></path><path d="M1603.24 701L1412.35 545.89" stroke="hsl(228.5, 77.2%, 51.5%)" stroke-width="1.5"></path><path d="M1603.24 701L1573.34 395.13" stroke="hsl(228.5, 77.2%, 51.5%)" stroke-width="1.5"></path><circle r="25" cx="398.2" cy="534.97" fill="url(&quot;#SvgjsRadialGradient1003&quot;)"></circle><circle r="25" cx="711.11" cy="505.16" fill="url(&quot;#SvgjsRadialGradient1003&quot;)"></circle><circle r="25" cx="647.19" cy="707.15" fill="url(&quot;#SvgjsRadialGradient1003&quot;)"></circle><circle r="25" cx="965.07" cy="680.66" fill="url(&quot;#SvgjsRadialGradient1003&quot;)"></circle><circle r="25" cx="1282.56" cy="-65.82" fill="url(&quot;#SvgjsRadialGradient1003&quot;)"></circle><circle r="25" cx="1246.92" cy="220.03" fill="url(&quot;#SvgjsRadialGradient1003&quot;)"></circle><circle r="25" cx="1582.32" cy="248.39" fill="url(&quot;#SvgjsRadialGradient1003&quot;)"></circle><circle r="25" cx="1573.34" cy="395.13" fill="url(&quot;#SvgjsRadialGradient1003&quot;)"></circle><circle r="5" cx="-60.52" cy="505.04" fill="#8b9ad9"></circle><circle r="5" cx="-110.46" cy="648.77" fill="#8b9ad9"></circle><circle r="5" cx="73.5" cy="546.05" fill="#8b9ad9"></circle><circle r="5" cx="68.11" cy="656.96" fill="#8b9ad9"></circle><circle r="5" cx="259.02" cy="653.34" fill="#8b9ad9"></circle><circle r="5" cx="354.42" cy="663.92" fill="#8b9ad9"></circle><circle r="5" cx="492.08" cy="704.27" fill="#8b9ad9"></circle><circle r="5" cx="684.6" cy="384" fill="#8b9ad9"></circle><circle r="5" cx="800.45" cy="379.26" fill="#8b9ad9"></circle><circle r="5" cx="807.62" cy="525.55" fill="#8b9ad9"></circle><circle r="5" cx="833.15" cy="696" fill="#8b9ad9"></circle><circle r="5" cx="1002.84" cy="237.25" fill="#8b9ad9"></circle><circle r="5" cx="970.36" cy="393.82" fill="#8b9ad9"></circle><circle r="5" cx="986.17" cy="517.28" fill="#8b9ad9"></circle><circle r="5" cx="1089.68" cy="220.96" fill="#8b9ad9"></circle><circle r="5" cx="1159.08" cy="393.8" fill="#8b9ad9"></circle><circle r="5" cx="1116.69" cy="525.48" fill="#8b9ad9"></circle><circle r="5" cx="1143.3" cy="702.92" fill="#8b9ad9"></circle><circle r="5" cx="1291.53" cy="43.68" fill="#8b9ad9"></circle><circle r="5" cx="1291.65" cy="396.63" fill="#8b9ad9"></circle><circle r="5" cx="1276.39" cy="545.44" fill="#8b9ad9"></circle><circle r="5" cx="1288.6" cy="709.62" fill="#8b9ad9"></circle><circle r="5" cx="1421.05" cy="-83.46" fill="#8b9ad9"></circle><circle r="5" cx="1411.23" cy="55.81" fill="#8b9ad9"></circle><circle r="5" cx="1413.23" cy="200.36" fill="#8b9ad9"></circle><circle r="5" cx="1411.48" cy="395.26" fill="#8b9ad9"></circle><circle r="5" cx="1412.35" cy="545.89" fill="#8b9ad9"></circle><circle r="5" cx="1569.75" cy="-64.29" fill="#8b9ad9"></circle><circle r="5" cx="1537.73" cy="493.25" fill="#8b9ad9"></circle><circle r="5" cx="1603.24" cy="701" fill="#8b9ad9"></circle></g><defs><mask id="SvgjsMask1002"><rect width="1440" height="560" fill="#ffffff"></rect></mask><radialGradient id="SvgjsRadialGradient1003"><stop stop-color="#ffffff" offset="0.1"></stop><stop stop-color="#1735b3" offset="0.2"></stop><stop stop-color="rgba(23, 53, 179, 0)" offset="1"></stop></radialGradient></defs></svg>