<svg id="visual" viewBox="0 0 900 600" width="900" height="600" xmlns="http://www.w3.org/2000/svg" xmlns:xlink="http://www.w3.org/1999/xlink" version="1.1"><path d="M0 454L21.5 464.5C43 475 86 496 128.8 486.3C171.7 476.7 214.3 436.3 257.2 422.7C300 409 343 422 385.8 429.5C428.7 437 471.3 439 514.2 444C557 449 600 457 642.8 465.2C685.7 473.3 728.3 481.7 771.2 470.2C814 458.7 857 427.3 878.5 411.7L900 396L900 601L878.5 601C857 601 814 601 771.2 601C728.3 601 685.7 601 642.8 601C600 601 557 601 514.2 601C471.3 601 428.7 601 385.8 601C343 601 300 601 257.2 601C214.3 601 171.7 601 128.8 601C86 601 43 601 21.5 601L0 601Z" fill="#d6d6d6" stroke-linecap="round" stroke-linejoin="miter"></path></svg>