<svg xmlns="http://www.w3.org/2000/svg" version="1.1" xmlns:xlink="http://www.w3.org/1999/xlink" xmlns:svgjs="http://svgjs.dev/svgjs" width="1440" height="560" preserveAspectRatio="none" viewBox="0 0 1440 560"><g mask="url(&quot;#SvgjsMask1001&quot;)" fill="none"><path d="M -803.0721435501857,423 C -707.07,389 -515.07,254.2 -323.07214355018573,253 C -131.07,251.8 -35.07,415.4 156.92785644981427,417 C 348.93,418.6 444.93,280.2 636.9278564498143,261 C 828.93,241.8 956.31,359.2 1116.9278564498143,321 C 1277.54,282.8 1375.39,120.2 1440,70" stroke="rgba(51, 121, 194, 0.58)" stroke-width="2"></path><path d="M -894.6342743394023,284 C -798.63,279.8 -606.63,253.6 -414.63427433940234,263 C -222.63,272.4 -126.63,338.8 65.36572566059766,331 C 257.37,323.2 353.37,201.6 545.3657256605977,224 C 737.37,246.4 846.44,467.4 1025.3657256605977,443 C 1204.29,418.6 1357.07,170.2 1440,102" stroke="rgba(51, 121, 194, 0.58)" stroke-width="2"></path><path d="M -76.96814018969155,188 C 19.03,213 211.03,310.8 403.03185981030845,313 C 595.03,315.2 691.03,160.8 883.0318598103084,199 C 1075.03,237.2 1171.03,502.8 1363.0318598103086,504 C 1555.03,505.2 1827.64,219.2 1843.0318598103086,205 C 1858.43,190.8 1520.61,387.4 1440,433" stroke="rgba(51, 121, 194, 0.58)" stroke-width="2"></path><path d="M -437.32876554939105,184 C -341.33,204.8 -149.33,286 42.671234450608964,288 C 234.67,290 330.67,164 522.671234450609,194 C 714.67,224 810.67,452.8 1002.671234450609,438 C 1194.67,423.2 1395.21,135.4 1482.671234450609,120 C 1570.14,104.6 1448.53,312.8 1440,361" stroke="rgba(51, 121, 194, 0.58)" stroke-width="2"></path></g><defs><mask id="SvgjsMask1001"><rect width="1440" height="560" fill="#ffffff"></rect></mask></defs></svg>